<svg xmlns:dc="http://purl.org/dc/elements/1.1/" xmlns:cc="http://creativecommons.org/ns#" xmlns:rdf="http://www.w3.org/1999/02/22-rdf-syntax-ns#" xmlns:svg="http://www.w3.org/2000/svg" xmlns="http://www.w3.org/2000/svg" version="1.1" viewBox="0 0 100 125" xml:space="preserve" x="0px" y="0px"><path d="M 50,22.6875 C 46.73005,32.005317 35.284734,40.30033 35.8125,49.75 c 0.0014,0.01853 -6.7e-5,0.0439 0,0.0625 0.02961,7.857769 6.356928,14.40625 14.1875,14.40625 7.830572,0 14.157907,-6.548481 14.1875,-14.40625 7.4e-5,-0.0186 -0.0014,-0.04397 0,-0.0625 C 64.715267,40.30033 53.269949,32.005317 50,22.6875 z m 32.875,27.46875 c -1.133875,0.02316 -2.292594,0.219692 -3.40625,0.625 -3.317199,1.207447 -5.674148,3.96201 -6.6875,7.25 l -8.3125,0 C 64.45202,58.06153 64.42318,58.09481 64.40625,58.125 60.932146,64.769391 52.525777,68.115771 45.375,66 41.141715,64.835587 37.721107,61.810719 35.625,58.03125 l -10.375,0 C 22.194627,53.829054 16.899775,51.887045 12.125,53.625 8.1646105,55.066427 5.5665748,58.668471 5,62.8125 l 7.9375,-2.875 c 1.19609,-0.435344 2.502091,0.178882 2.9375,1.375 l 2.59375,7.0625 c 0.435278,1.196066 -0.178924,2.533423 -1.375,2.96875 l -7.9375,2.875 c 3.097656,2.809044 7.415438,3.909953 11.375,2.46875 3.317315,-1.207344 5.674148,-3.96201 6.6875,-7.25 17.001567,0.02682 32.1557,-0.03337 47.5625,0 3.055377,4.202211 8.318961,6.144205 13.09375,4.40625 3.960376,-1.441392 6.558324,-5.043574 7.125,-9.1875 l -7.9375,2.90625 c -1.196074,0.435344 -2.502206,-0.178952 -2.9375,-1.375 l -2.59375,-7.09375 c -0.435294,-1.196048 0.178925,-2.533406 1.375,-2.96875 l 7.9375,-2.875 C 88.61733,51.230957 85.772681,50.097054 82.875,50.15625 z" style="" fill="#000000" fill-opacity="1" fill-rule="evenodd" stroke-width="0.50099999" stroke-linejoin="bevel" overflow="visible"/></svg>